# xmcd
#
# Track frame offsets:
#	150
#	25727
#	42235
#	70496
#	98345
#	127301
#	137970
#	183707
#	204419
#	230660
#	257363
#
# Disc length: 3887 seconds
#
# Revision: 1
# Processed by: cddbd v1.5.2PL0 Copyright (c) Steve Scherf et al.
# Submitted via: audiograbber 1.83.01
#
DISCID=9e0f2d0b
DTITLE=Grateful Dead - 80-12-31 Oakland Auditorium Arena, Oakland CA
DYEAR=1900
DGENRE=
TTITLE0=To Lay Me Down
TTITLE1=Monkey and The Engineer
TTITLE2=Jack-A-Roe
TTITLE3=Cassidy
TTITLE4=All Around This World
TTITLE5=The Race Is On
TTITLE6=Bird Song
TTITLE7=Ripple
TTITLE8=Alabama Getaway
TTITLE9=Greatest Story Ever Told
TTITLE10=They Love Each Other
EXTD=
EXTT0=
EXTT1=
EXTT2=
EXTT3=
EXTT4=
EXTT5=
EXTT6=
EXTT7=
EXTT8=
EXTT9=
EXTT10=
PLAYORDER=
